<svg id="Layer_1" data-name="Layer 1" xmlns="http://www.w3.org/2000/svg" width="100" height="100" viewBox="0 0 100 100"><g id="Layer_2" data-name="Layer 2"><g id="Layer_1-2" data-name="Layer 1-2"><path d="M50.32,19.3a30.5,30.5,0,1,1-30.5,30.5,30.51,30.51,0,0,1,30.5-30.5m0-15a45.5,45.5,0,1,0,45.5,45.5A45.5,45.5,0,0,0,50.32,4.3Z" fill="#36c2ff"/><path d="M50.32,37.3a12.5,12.5,0,1,1-12.5,12.5h0a12.52,12.52,0,0,1,12.5-12.5m0-15a27.5,27.5,0,1,0,27.5,27.5A27.5,27.5,0,0,0,50.32,22.3Z" fill="#f79e28"/></g></g><rect x="4.82" y="79.3" width="91" height="4.81"/><rect x="4.82" y="65.29" width="91" height="4.81"/><rect x="4.82" y="49.8" width="91" height="4.81"/><rect x="4.82" y="33.14" width="91" height="4.81"/><rect x="1.5" y="1.5" width="97" height="97" rx="12" fill="none" stroke="#36c2ff" stroke-miterlimit="10" stroke-width="2"/></svg>