<svg id="lastboticon" xmlns="http://www.w3.org/2000/svg" width="100" height="100" viewBox="0 0 100 100"><g id="Layer_2" data-name="Layer 2"><g id="Layer_1-2" data-name="Layer 1-2"><path d="M50.26,23.77a26,26,0,1,1-26,26,26,26,0,0,1,26-26m0-12.77A38.74,38.74,0,1,0,89,49.74,38.74,38.74,0,0,0,50.26,11Z" fill="#36c2ff"/><path d="M50.26,39.1A10.65,10.65,0,1,1,39.61,49.74h0A10.66,10.66,0,0,1,50.26,39.1m0-12.77A23.42,23.42,0,1,0,73.67,49.74,23.42,23.42,0,0,0,50.26,26.33Z" fill="#f79e28"/></g></g><rect x="11.52" y="74.86" width="77.48" height="4.09"/><rect x="11.52" y="62.93" width="77.48" height="4.09"/><rect x="11.52" y="49.74" width="77.48" height="4.09"/><rect x="11.52" y="35.55" width="77.48" height="4.09"/><rect x="1.5" y="1.5" width="97" height="97" rx="12" fill="none" stroke="#36c2ff" stroke-miterlimit="10" stroke-width="2"/></svg>