<svg xmlns="http://www.w3.org/2000/svg" width="91" height="91" viewBox="0 0 91 91"><g id="Layer_2" data-name="Layer 2"><g id="lastboticon"><g id="Layer_2-2" data-name="Layer 2"><g id="Layer_1-2" data-name="Layer 1-2"><path d="M45.5,15A30.5,30.5,0,1,1,15,45.5,30.51,30.51,0,0,1,45.5,15m0-15A45.5,45.5,0,1,0,91,45.5,45.5,45.5,0,0,0,45.5,0Z" fill="#36c2ff"/><path d="M45.5,33A12.5,12.5,0,1,1,33,45.5h0A12.52,12.52,0,0,1,45.5,33m0-15A27.5,27.5,0,1,0,73,45.5,27.5,27.5,0,0,0,45.5,18Z" fill="#f79e28"/></g></g><rect y="75" width="91" height="4.81"/><rect y="60.98" width="91" height="4.81"/><rect y="45.5" width="91" height="4.81"/><rect y="28.84" width="91" height="4.81"/></g></g></svg>