<?xml version="1.0" encoding="UTF-8"?><svg xmlns="http://www.w3.org/2000/svg" width="201.84" height="92.53" viewBox="0 0 201.84 92.53"><g id="a"/><g id="b"><g id="c"><g><path d="M2.85,51.11c-3-2.8-.88-7.81,3.21-7.63h.19c.79,.04,1.58-.13,2.27-.51L64.79,12.98c.57-.31,1.06-.75,1.42-1.3l.28-.44c2.06-3.18,7-1.77,7.07,2.02h0c.01,.61,.17,1.2,.45,1.74l8.06,15.12c10.33,19.38,3,43.47-16.38,53.81h0c-19.38,10.33-43.47,3-53.81-16.38L3.73,52.26c-.23-.43-.53-.82-.88-1.15" fill="#231f20" stroke="#3ad800" stroke-miterlimit="10" stroke-width="2.88"/><path d="M47.93,21.45l-24.23,12.92-5.93-11.12c-.19-.36-.47-.68-.81-.91l-.28-.19c-2.08-1.46-1.07-4.73,1.47-4.78h0c.42,0,.82-.11,1.19-.31l15.88-8.47c.43-.23,.78-.57,1.03-.98l.36-.62c1.24-2.1,4.43-1.53,4.85,.88l.32,1.81c.05,.27,.14,.54,.27,.78l5.86,11Z" fill="#231f20" stroke="#3ad800" stroke-miterlimit="10" stroke-width="2.88"/><line x1="27.47" y1="12.72" x2="35.62" y2="28.01" fill="none" stroke="#3ad800" stroke-miterlimit="10" stroke-width=".82"/><polyline points="19.41 26.31 25.89 22.85 22.04 15.62" fill="none" stroke="#3ad800" stroke-miterlimit="10" stroke-width=".82"/><polyline points="43.86 16.41 39.76 18.6 37.16 13.73 41.27 11.54" fill="none" stroke="#3ad800" stroke-miterlimit="10" stroke-width=".82"/><polyline points="14.47 71.75 37.18 59.64 29.66 45.54 34.58 42.92 28.93 32.32" fill="none" stroke="#3ad800" stroke-miterlimit="10" stroke-width=".82"/><polyline points="65.69 83.92 56.11 65.97 86.74 49.63" fill="none" stroke="#3ad800" stroke-miterlimit="10" stroke-width=".82"/><polyline points="82.07 30.12 65.5 38.95 60.87 30.28 69.16 25.86 62.93 14.19" fill="none" stroke="#3ad800" stroke-miterlimit="10" stroke-width=".82"/></g><g><path d="M197.11,70.18c-2.66,4.79-7.19,8.55-12.93,9.88h-.02l-3.84,.51c-.91,.03-1.85,0-2.81-.08l-1.44-.13c-.3,.3-.6,.6-.91,.89-4.36,4.12-9.63,7.02-15.27,8.56-6.98,1.91-14.53,1.74-21.65-.81-1.84-.66-3.65-1.47-5.41-2.45-2.36-1.31-4.52-2.85-6.46-4.57-5.24-4.64-8.9-10.63-10.75-17.13-.19-.68-.37-1.37-.52-2.06-.19-.82-.34-1.64-.46-2.47-.23-1.53-.36-3.07-.39-4.63-.04-2.09,.09-4.19,.42-6.28,.12-.77,.26-1.53,.43-2.3l-1.89-2.48c-5.4-7.11-5.23-15.57-1.61-22.09,3.89-7,11.76-11.77,20.98-10.24,.08-.32,.13-.65,.13-.99l.04-3.36c.06-5.01,7.21-5.84,8.41-.97,.14,.58,.4,1.11,.75,1.57,.35,.46,.8,.85,1.32,1.14l48.37,26.87c.93,.52,2,.73,3.06,.62,1.19-.12,2.23,.11,3.08,.59,3.29,1.83,3.87,7.18-.25,9.21l-.46,.23c-.5,.25-.95,.57-1.35,.96,5.19,6.84,5.08,15.4,1.41,22.01Z" fill="#231f20" stroke="#f33" stroke-miterlimit="10" stroke-width="2.88"/><polyline points="135.83 87.89 142.65 75.62 163.57 87.24" fill="none" stroke="#ff4133" stroke-miterlimit="10" stroke-width=".82"/><polyline points="151.64 14.36 144.34 27.52 155.47 33.7 149.28 44.83 162.86 52.37 168.43 42.32 173.88 45.35 181.79 31.1" fill="none" stroke="#ff4133" stroke-miterlimit="10" stroke-width=".82"/><path d="M178.2,31.07l-21.3-11.83,7.03-12.66c.41-.73,.2-1.65-.49-2.14h0c-1.69-1.2-.07-3.78,1.74-2.77l4.91,2.73,14.42,8.01,4.21,2.34c2.01,1.12,.61,4.17-1.55,3.38h0c-.86-.32-1.83,.04-2.27,.84l-6.72,12.1Z" fill="#231f20" stroke="#f33" stroke-miterlimit="10" stroke-width="2.88"/><circle cx="182.24" cy="63.13" r="4.62" fill="#f33"/><line x1="162.48" y1="9.2" x2="183.78" y2="21.03" fill="none" stroke="#ff4133" stroke-miterlimit="10" stroke-width=".82"/><line x1="160.44" y1="12.86" x2="181.74" y2="24.69" fill="none" stroke="#ff4133" stroke-miterlimit="10" stroke-width=".82"/><polyline points="171.09 18.78 168.89 22.73 174.34 25.76 176.54 21.8" fill="none" stroke="#ff4133" stroke-miterlimit="10" stroke-width=".82"/><polyline points="111.6 22.54 135.03 35.55 116.41 69.08" fill="none" stroke="#ff4133" stroke-miterlimit="10" stroke-width=".82"/><polyline points="199.68 58.55 177.55 46.26 176.29 48.54 160.5 76.96 172.09 83.39" fill="none" stroke="#ff4133" stroke-miterlimit="10" stroke-width=".82"/></g><g><path d="M119.46,78.83h0c-12.78,14.37-35.24,14.37-48.01,0h0c-5.23-5.88-8.11-13.47-8.11-21.34V26.54H127.57v30.95c0,7.87-2.89,15.46-8.11,21.34Z" fill="#231f20" stroke="#36c2ff" stroke-miterlimit="10" stroke-width="2.88"/><polyline points="63.33 42.47 81.37 42.47 81.37 48.77 89.58 48.77 89.58 63.82 76.46 63.82 76.46 83.4" fill="none" stroke="#36c2ff" stroke-miterlimit="10" stroke-width=".82"/><polyline points="109.02 26.54 109.02 36.59 127.57 36.59" fill="none" stroke="#36c2ff" stroke-miterlimit="10" stroke-width=".82"/><polyline points="103.31 87.27 103.31 74.84 112.32 74.84 112.32 61.37 126.28 61.37" fill="none" stroke="#36c2ff" stroke-miterlimit="10" stroke-width=".82"/><polygon points="105.07 26.45 86.14 26.45 86.14 15.01 86.14 7.1 105.07 7.1 105.07 26.45" fill="#231f20" stroke="#36c2ff" stroke-miterlimit="10" stroke-width="2.88"/><polyline points="85.66 17.7 90.8 17.7 103.52 17.7" fill="none" stroke="#36c2ff" stroke-miterlimit="10" stroke-width=".82"/><rect x="90.8" y="17.7" width="6.42" height="3.7" fill="none" stroke="#36c2ff" stroke-miterlimit="10" stroke-width=".82"/></g></g></g></svg>