<svg xmlns="http://www.w3.org/2000/svg" width="318" height="21.12" viewBox="0 0 318 21.12"><g id="Layer_2" data-name="Layer 2"><g id="comingaugust"><path d="M17.61,7.59a11.08,11.08,0,0,1,8.49,3.63l-3.34,3.17a7.33,7.33,0,0,0-5.15-2.22,5.68,5.68,0,0,0-5.81,6,5.68,5.68,0,0,0,5.81,6,7.36,7.36,0,0,0,5.15-2.21L26,25.08a11.25,11.25,0,0,1-8.39,3.63A10.38,10.38,0,0,1,6.89,18.15,10.38,10.38,0,0,1,17.61,7.59Z" transform="translate(0 -7.59)" fill="#f79e28"/><path d="M38.3,7.59A10.35,10.35,0,0,1,49,18.15,10.35,10.35,0,0,1,38.3,28.71,10.33,10.33,0,0,1,27.64,18.15,10.33,10.33,0,0,1,38.3,7.59Zm0,16.53a5.65,5.65,0,0,0,5.75-6,5.65,5.65,0,0,0-5.75-6c-3.53,0-5.74,2.64-5.74,6A5.62,5.62,0,0,0,38.3,24.12Z" transform="translate(0 -7.59)" fill="#f79e28"/><path d="M52.33,8.25h4.52l5,10.69L67,8.25h4.46v19.8H66.62V19.24l-4.33,9.47H61.5l-4.32-9.54v8.88H52.33Z" transform="translate(0 -7.59)" fill="#f79e28"/><path d="M74.6,8.25h4.85v19.8H74.6Z" transform="translate(0 -7.59)" fill="#f79e28"/><path d="M82.62,8.25h5.12L95.43,20V8.25h4.82v19.8h-5L87.47,16.27V28.05H82.62Z" transform="translate(0 -7.59)" fill="#f79e28"/><path d="M114,7.59a11,11,0,0,1,8.28,3.46L119,14.15a7.32,7.32,0,0,0-4.92-2,5.68,5.68,0,0,0-5.81,6,5.7,5.7,0,0,0,5.91,6c3.46,0,5.15-1.91,5.28-3.83h-5.65V16.1h10.9V18c0,5.85-3.44,10.73-10.63,10.73a10.39,10.39,0,0,1-10.73-10.56A10.39,10.39,0,0,1,114,7.59Z" transform="translate(0 -7.59)" fill="#f79e28"/><path d="M139.08,12.54h-4.42V8.25h13.8v4.29H144V28.05h-4.89Z" transform="translate(0 -7.59)" fill="#f79e28"/><path d="M150.7,8.25h4.85V16h7.76V8.25h4.81v19.8h-4.81V20.23h-7.76v7.82H150.7Z" transform="translate(0 -7.59)" fill="#f79e28"/><path d="M171.29,8.25h4.85v19.8h-4.85Z" transform="translate(0 -7.59)" fill="#f79e28"/><path d="M183.93,22.24a2.06,2.06,0,0,0,2,2.08,1.74,1.74,0,0,0,2-1.72c0-1.48-2-1.91-3.57-2.47-3.33-1.19-5.18-2.74-5.18-6.14a6.59,6.59,0,0,1,6.73-6.4c4.39,0,6.47,2.8,6.74,6.47h-4.56a2.06,2.06,0,0,0-4.12-.14c0,1.49,1.81,1.75,3.49,2.25,3.54,1,5.19,3,5.19,6.14a6.56,6.56,0,0,1-6.7,6.4c-4.33,0-6.77-2.9-6.77-6.47Z" transform="translate(0 -7.59)" fill="#f79e28"/><path d="M212.28,7.59h.86l9.7,20.46h-5.22l-1-2.05h-7.82l-.95,2.05h-5.22Zm2.7,15-2.27-5h-.07l-2.31,5Z" transform="translate(0 -7.59)" fill="#f79e28"/><path d="M224,8.25h4.82V20.66c0,2.64,1.25,3.56,2.93,3.56,1.85,0,3-.92,3-3.56V8.25h4.85V21.38c0,4.69-3.5,7.33-7.86,7.33-4.52,0-7.75-2.77-7.75-7.33Z" transform="translate(0 -7.59)" fill="#f79e28"/><path d="M253.36,7.59a11,11,0,0,1,8.29,3.46l-3.37,3.1a7.3,7.3,0,0,0-4.92-2,5.68,5.68,0,0,0-5.81,6,5.7,5.7,0,0,0,5.91,6c3.47,0,5.15-1.91,5.28-3.83H253.1V16.1H264V18c0,5.85-3.43,10.73-10.63,10.73a10.38,10.38,0,0,1-10.72-10.56A10.38,10.38,0,0,1,253.36,7.59Z" transform="translate(0 -7.59)" fill="#f79e28"/><path d="M267.15,8.25H272V20.66c0,2.64,1.26,3.56,2.94,3.56,1.85,0,3-.92,3-3.56V8.25h4.86V21.38c0,4.69-3.5,7.33-7.86,7.33-4.52,0-7.76-2.77-7.76-7.33Z" transform="translate(0 -7.59)" fill="#f79e28"/><path d="M290.55,22.24a2.07,2.07,0,0,0,2.05,2.08,1.74,1.74,0,0,0,2-1.72c0-1.48-1.95-1.91-3.57-2.47-3.33-1.19-5.18-2.74-5.18-6.14a6.59,6.59,0,0,1,6.73-6.4c4.39,0,6.47,2.8,6.74,6.47h-4.56a2.06,2.06,0,0,0-4.12-.14c0,1.49,1.81,1.75,3.5,2.25,3.53,1,5.18,3,5.18,6.14a6.56,6.56,0,0,1-6.7,6.4c-4.33,0-6.77-2.9-6.77-6.47Z" transform="translate(0 -7.59)" fill="#f79e28"/><path d="M305.73,12.54h-4.42V8.25H315.1v4.29h-4.48V28.05h-4.89Z" transform="translate(0 -7.59)" fill="#f79e28"/><rect y="16.98" width="318" height="2"/><rect y="11.98" width="318" height="2"/></g></g></svg>