<svg xmlns="http://www.w3.org/2000/svg" xmlns:xlink="http://www.w3.org/1999/xlink" viewBox="0 0 92.78 92.78"><defs><style>.cls-1{fill:none;}.cls-2{clip-path:url(#clip-path);}.cls-3{fill:#1ab3ff;}.cls-4{fill:#f9d53d;}.cls-5{fill:#ff381d;}</style><clipPath id="clip-path"><rect class="cls-1" width="92.78" height="92.78"/></clipPath></defs><g id="Layer_2" data-name="Layer 2"><g id="Layer_1-2" data-name="Layer 1"><g class="cls-2"><path class="cls-3" d="M-173,58.54c16.73-4,33.52-8.13,50.54-10.75A134.75,134.75,0,0,1-108,46.3l-2,.08a101.24,101.24,0,0,1,22.78,1.87c1.75.33,3.49.71,5.22,1.09s-1.67-.4,0,0l1.42.34c1.1.27,2.2.54,3.29.83,3.57.92,7.12,1.92,10.67,2.92a208.94,208.94,0,0,0,38.44,6.88,293,293,0,0,0,39.86.61,285.48,285.48,0,0,0,36.42-4,190.85,190.85,0,0,0,34.61-9.24c3.65-1.4,5.32-6.58,3.54-9.94-2-3.81-6-5-10-3.54-2.35.9-4.74,1.72-7.14,2.49l1.91-.61c-15.65,4.95-32,7.67-48.33,9.2Q14.92,46,7.06,46.31l2-.08a280.83,280.83,0,0,1-32.95-.54q-8.16-.61-16.25-1.8-4-.59-7.92-1.33-1.75-.33-3.51-.69l-1.93-.41-1-.22c-.57-.12-.26-.05.93.22l-.77-.18C-60,40-65.53,38.23-71.16,36.75A186.79,186.79,0,0,0-91.3,32.47c-13.49-1.95-27-.69-40.32,1.74-14.76,2.7-29.37,6.19-44,9.64-3.79.9-7,4.55-6,8.64.84,3.76,4.58,7,8.65,6Z"/><path class="cls-4" d="M-171.09,51.37c2-.79,3.92-1.48,5.9-2.16,1-.34-1.46.45-.47.15l.72-.22,1.44-.43c1.05-.3,2.09-.58,3.15-.85a127.91,127.91,0,0,1,12.56-2.49c4.25-.63,8.52-1.08,12.8-1.41,2.1-.16,4.21-.29,6.31-.4l3-.15c-2.17.13-.23,0,.27,0l1.77-.06q27.45-.9,54.89.91c18.4,1.2,36.64,3.63,55,5.74,18.71,2.15,37.5,3.6,56.32,2.26C60.54,51,78,46.46,95.3,41.54l6.34-1.82a8.14,8.14,0,0,0,4.82-3.07,7.56,7.56,0,0,0,1.23-5.58c-.8-3.6-4.62-7.2-8.64-6.05C81.84,30,64.52,35,46.67,37c-2.32.26-4.65.46-7,.62-1.07.08-2.15.14-3.22.2l-1.61.07c2.1-.14-.18,0-.69,0-4.57.13-9.14.1-13.71,0-9.17-.3-18.32-1.1-27.44-2.08-18.31-2-36.55-4.59-54.92-6s-37-1.86-55.54-1.42c-18.26.44-36.44,1.59-53.91,7.3-2.08.68-4.12,1.42-6.14,2.24-3.63,1.46-5.35,6.53-3.54,9.94a7.64,7.64,0,0,0,9.94,3.54Z"/><path class="cls-5" d="M-166.85,62.67c8.58-3.37,17.16-6.73,25.83-9.87q6.44-2.32,12.94-4.45c.47-.15,2.37-.7.35-.11l1.5-.47,3.27-1q3.39-1,6.81-1.94a202.27,202.27,0,0,1,26.69-5.42c4.76-.62,9.54-1,14.34-1.26.27,0,.54,0,.81,0,0,0-1.51.06-.64,0l1.63,0c1.27,0,2.54-.06,3.81-.08q3.53,0,7.07.05c19.14.42,38.14,3.2,57,6.43,18,3.08,36,6.67,54.19,8.34s37.1,1.5,54.92-3.21c2.63-.69,5.23-1.51,7.82-2.35,1.64-.53,3.22-2.61,3.79-4.15a7.47,7.47,0,0,0-4.41-9.59,8.73,8.73,0,0,0-5.79.26c-1.39.45,1.34-.4-.06,0l-1.72.51c-1.07.31-2.14.6-3.22.87q-3.21.82-6.47,1.45a127.84,127.84,0,0,1-13.37,1.83c-1,.08-2,.16-3,.22l-1.78.11-.77,0c-1,.06,1.51,0,.47,0-2.22.07-4.44.12-6.66.11-4.55,0-9.1-.22-13.64-.55C36.63,37,18.72,33.61.81,30.47-18,27.17-37,24.17-56.14,23.36a203.28,203.28,0,0,0-57,5.34c-18.37,4.49-36.14,11.12-53.73,18l-6.37,2.5c-3.63,1.42-5.33,6.55-3.53,9.94a7.65,7.65,0,0,0,9.94,3.54Z"/></g></g></g></svg>