<svg xmlns="http://www.w3.org/2000/svg" xmlns:xlink="http://www.w3.org/1999/xlink" viewBox="0 0 34.77 28.81"><defs><style>.cls-1{fill:none;}.cls-2{clip-path:url(#clip-path);}.cls-3{fill:#1ab3ff;}.cls-4{fill:#f9d53d;}.cls-5{fill:#ff381d;}</style><clipPath id="clip-path"><rect class="cls-1" width="34.77" height="28.81"/></clipPath></defs><g id="Layer_2" data-name="Layer 2"><g id="Layer_1-2" data-name="Layer 1"><g class="cls-2"><path class="cls-3" d="M-205.54,26.17C-188.8,22.21-172,18-155,15.42a137.55,137.55,0,0,1,14.46-1.49l-2,.08a101.28,101.28,0,0,1,22.78,1.87c1.75.33,3.49.71,5.22,1.09s-1.67-.4,0,0l1.41.34c1.11.27,2.2.54,3.3.83,3.57.92,7.12,1.92,10.67,2.92a208.79,208.79,0,0,0,38.44,6.88,293,293,0,0,0,39.86.61,285.48,285.48,0,0,0,36.42-4,190.85,190.85,0,0,0,34.61-9.24c3.65-1.4,5.32-6.58,3.53-9.94-2-3.81-6-5-9.94-3.54-2.35.9-4.74,1.72-7.14,2.49l1.91-.61c-15.65,5-32,7.67-48.33,9.2q-7.83.73-15.69,1l2-.08a281,281,0,0,1-33-.54q-8.14-.62-16.24-1.8-4-.58-7.92-1.33-1.75-.33-3.51-.69L-86,9.09l-1-.22c-.57-.12-.26,0,.93.22l-.77-.18c-5.66-1.33-11.23-3-16.86-4.53A187.31,187.31,0,0,0-123.84.1c-13.49-1.95-27-.69-40.32,1.74-14.76,2.7-29.37,6.19-44,9.64-3.79.9-7,4.55-6.05,8.64.84,3.76,4.58,7,8.64,6.05Z"/><path class="cls-4" d="M-203.63,19c1.95-.79,3.92-1.48,5.9-2.16,1-.34-1.46.45-.47.15l.72-.22,1.44-.43c1-.3,2.09-.58,3.15-.85A127.91,127.91,0,0,1-180.33,13c4.25-.63,8.52-1.08,12.8-1.41,2.1-.16,4.21-.29,6.31-.4,1-.06,2-.09,3-.15-2.17.13-.23,0,.27,0l1.77-.06c18.29-.6,36.62-.29,54.89.91s36.64,3.63,55,5.74C-27.6,19.77-8.82,21.22,10,19.88c18-1.27,35.47-5.79,52.75-10.71L69.1,7.35a8.14,8.14,0,0,0,4.82-3.07A7.56,7.56,0,0,0,75.15-1.3c-.8-3.6-4.62-7.2-8.64-6C49.3-2.4,32,2.58,14.13,4.58c-2.32.26-4.65.46-7,.63L3.93,5.4l-1.61.07c2.09-.14-.18,0-.69,0-4.57.13-9.14.1-13.71,0-9.17-.3-18.32-1.1-27.44-2.08-18.32-2-36.55-4.59-54.92-6S-131.46-4.46-150-4c-18.26.44-36.44,1.59-53.92,7.3C-206,4-208,4.7-210,5.52c-3.63,1.46-5.35,6.53-3.54,9.94A7.64,7.64,0,0,0-203.63,19Z"/><path class="cls-5" d="M-199.39,30.3c8.58-3.37,17.16-6.73,25.83-9.87q6.44-2.33,12.94-4.45c.47-.15,2.37-.7.35-.11l1.5-.47,3.27-1q3.39-1,6.81-1.94A202.27,202.27,0,0,1-122,7c4.76-.62,9.54-1,14.33-1.26.27,0,.55,0,.82,0,0,0-1.51.06-.64,0l1.63,0c1.27,0,2.54-.06,3.8-.08q3.54,0,7.08.05c19.14.42,38.14,3.2,57,6.43,18,3.08,36,6.67,54.19,8.34S53.3,22,71.11,17.25c2.64-.69,5.23-1.51,7.82-2.35,1.65-.53,3.23-2.61,3.8-4.15A7.64,7.64,0,0,0,82.47,5a7.54,7.54,0,0,0-4.15-3.8,8.73,8.73,0,0,0-5.79.26c-1.39.45,1.34-.4-.06,0l-1.72.51c-1.07.31-2.14.6-3.22.87q-3.21.82-6.47,1.45A128.21,128.21,0,0,1,47.69,6.09c-1,.08-2,.16-3,.22l-1.78.11-.77,0c-1,.06,1.51,0,.47,0-2.22.07-4.44.12-6.66.11-4.55,0-9.1-.22-13.65-.55C4.09,4.67-13.82,1.24-31.73-1.9-50.58-5.2-69.54-8.2-88.68-9a203.28,203.28,0,0,0-57,5.34c-18.37,4.49-36.14,11.12-53.73,18l-6.37,2.5c-3.64,1.42-5.33,6.55-3.54,9.94a7.66,7.66,0,0,0,10,3.54Z"/></g></g></g></svg>