<?xml version="1.0" encoding="utf-8"?>
<!-- Generator: Adobe Illustrator 25.3.1, SVG Export Plug-In . SVG Version: 6.00 Build 0)  -->
<svg version="1.1" id="Layer_1" xmlns="http://www.w3.org/2000/svg" xmlns:xlink="http://www.w3.org/1999/xlink" x="0px" y="0px"
	 viewBox="0 0 100 100" style="enable-background:new 0 0 100 100;" xml:space="preserve">
<style type="text/css">
	.st0{fill:#45C5FF;}
	.st1{fill:#FFC010;}
</style>
<g>
	<path class="st0" d="M49.5,19C66.32,19,80,32.68,80,49.5S66.32,80,49.5,80S19,66.32,19,49.5S32.68,19,49.5,19 M49.5,4
		C24.37,4,4,24.37,4,49.5S24.37,95,49.5,95S95,74.63,95,49.5S74.63,4,49.5,4L49.5,4z"/>
</g>
<g>
	<path class="st1" d="M49.5,37C56.39,37,62,42.61,62,49.5S56.39,62,49.5,62S37,56.39,37,49.5S42.61,37,49.5,37 M49.5,22
		C34.31,22,22,34.31,22,49.5S34.31,77,49.5,77S77,64.69,77,49.5S64.69,22,49.5,22L49.5,22z"/>
</g>
</svg>
