<?xml version="1.0" encoding="UTF-8"?><svg xmlns="http://www.w3.org/2000/svg" width="139.34" height="93.88" viewBox="0 0 139.34 93.88"><g id="a"/><g id="b"><g id="c"><g><rect x="56.18" y="45.14" width="27.52" height="46.65" fill="#231f20" stroke="#ff48ff" stroke-miterlimit="10" stroke-width="4.19"/><polyline points="68.76 65.43 68.76 72.19 60.73 72.19 60.73 65.43" fill="none" stroke="#ff48ff" stroke-miterlimit="10" stroke-width="1.2"/><polyline points="83.74 85.76 76.97 85.76 76.97 77.73 83.74 77.73" fill="none" stroke="#ff48ff" stroke-miterlimit="10" stroke-width="1.2"/></g><path d="M129.51,48.31c0,10.07-7.44,18.4-17.13,19.78-7.41,15.63-21.57-3.64-40.02-3.64s-35.97,19.37-43.42,3.85h-.09c-11.04,0-19.99-8.95-19.99-19.99s8.95-19.99,19.99-19.99h.08C36.38,12.81,52.25,2.09,70.61,2.09s34.37,10.81,41.78,26.44c9.68,1.39,17.12,9.71,17.12,19.78Z" fill="#231f20" stroke="#ff48ff" stroke-miterlimit="10" stroke-width="4.19"/><g><line x1="56.6" y1="3.84" x2="56.6" y2="24.76" fill="none" stroke="#ff48ff" stroke-miterlimit="10" stroke-width="1.2"/><g><line x1="56.12" y1="24.27" x2="84.16" y2="24.27" fill="none" stroke="#ff48ff" stroke-miterlimit="10" stroke-width="1.2"/><line x1="83.57" y1="5.45" x2="83.57" y2="23.96" fill="none" stroke="#ff48ff" stroke-miterlimit="10" stroke-width="1.2"/></g></g><g><line x1="123.75" y1="28.23" x2="111.9" y2="28.23" fill="none" stroke="#ff48ff" stroke-miterlimit="10" stroke-width="1.2"/><g><line x1="112.17" y1="27.63" x2="112.17" y2="44.1" fill="none" stroke="#ff48ff" stroke-miterlimit="10" stroke-width="1.2"/><line x1="122.84" y1="43.51" x2="112.35" y2="43.51" fill="none" stroke="#ff48ff" stroke-miterlimit="10" stroke-width="1.2"/></g></g><g><line x1="11.25" y1="56.79" x2="23.1" y2="56.79" fill="none" stroke="#ff48ff" stroke-miterlimit="10" stroke-width="1.2"/><g><line x1="22.83" y1="57.38" x2="22.83" y2="40.91" fill="none" stroke="#ff48ff" stroke-miterlimit="10" stroke-width="1.2"/><line x1="12.17" y1="41.5" x2="22.66" y2="41.5" fill="none" stroke="#ff48ff" stroke-miterlimit="10" stroke-width="1.2"/></g></g><circle cx="72.35" cy="40.91" r="3.59" fill="#ff48ff"/><path d="M22.12,17.05l19.35-1.01c1.72-.09,3.34,.82,4.15,2.33l8.54,15.77c.74,1.36,.72,3-.05,4.35l-12,20.89c-1.39,2.43-.24,5.52,2.41,6.44h0c2.87,1,3.93,4.51,2.08,6.92l-4.91,6.43c-1.29,1.69-3.6,2.24-5.51,1.3l-20.75-10.19c-.44-.22-.85-.51-1.19-.86L3.4,58.55c-.97-.97-1.44-2.34-1.27-3.71l3.2-25.43c.16-1.28,.87-2.43,1.94-3.14l12.59-8.46c.67-.45,1.45-.71,2.26-.75Z" fill="#231f20" stroke="#36c2ff" stroke-miterlimit="10" stroke-width="4.19"/><path d="M83.31,39.11h0c-1.61,.07-2.78,1.56-2.45,3.14l.44,2.09c.22,1.05-.23,2.13-1.13,2.72l-.94,.61c-.93,.61-1.38,1.74-1.11,2.82l1.67,6.71c.4,1.6,2.16,2.43,3.64,1.73l8.22-3.88c1.1-.52,1.7-1.74,1.43-2.93l-1.22-5.45c-.11-.51-.38-.98-.77-1.34l-5.92-5.53c-.51-.48-1.19-.73-1.89-.7Z" fill="#231f20" stroke="#36c2ff" stroke-miterlimit="10" stroke-width="4.19"/><path d="M96.48,34.66l-6.6-15.62c-1.16-2.74,.3-5.89,3.14-6.78l4.76-1.49c2.17-.68,4.53,.18,5.76,2.1l6.01,9.42c1.11,1.74,3.17,2.63,5.2,2.24l6.11-1.17c2.51-.48,4.99,1,5.76,3.44l3.41,10.83c.27,.86,.77,1.64,1.45,2.24l4.1,3.66c2.04,1.83,2.25,4.95,.47,7.03l-11.54,13.53c-1.53,1.79-4.09,2.29-6.18,1.19l-9.67-5.07c-2.71-1.42-3.54-4.91-1.76-7.4h0c1.36-1.91,1.23-4.5-.31-6.26l-9.25-10.54c-.36-.41-.64-.87-.85-1.36Z" fill="#231f20" stroke="#36c2ff" stroke-miterlimit="10" stroke-width="4.19"/></g></g></svg>