<svg xmlns="http://www.w3.org/2000/svg" width="318" height="21.12" viewBox="0 0 318 21.12"><g id="Layer_2" data-name="Layer 2"><g id="comingaugust"><path d="M31.31,22.24a2.06,2.06,0,0,0,2,2.08c1.23,0,2-.69,2-1.72,0-1.48-2-1.91-3.57-2.47-3.33-1.19-5.18-2.74-5.18-6.14a6.59,6.59,0,0,1,6.73-6.4c4.39,0,6.47,2.8,6.74,6.47H35.5a2.06,2.06,0,0,0-4.12-.14c0,1.49,1.81,1.75,3.49,2.25,3.53,1,5.19,3,5.19,6.14a6.57,6.57,0,0,1-6.71,6.4c-4.32,0-6.76-2.9-6.76-6.47Z" transform="translate(0 -7.59)" fill="#36c2ff"/><path d="M51.24,7.59h.86l9.7,20.46H56.59L55.6,26H47.78l-1,2.05H41.6Zm2.71,15-2.28-5H51.6l-2.31,5Z" transform="translate(0 -7.59)" fill="#36c2ff"/><path d="M62.92,8.25h4.82V20.66c0,2.64,1.26,3.56,2.94,3.56,1.85,0,3-.92,3-3.56V8.25h4.85V21.38c0,4.69-3.49,7.33-7.85,7.33-4.52,0-7.76-2.77-7.76-7.33Z" transform="translate(0 -7.59)" fill="#36c2ff"/><path d="M81.7,8.25h4.85V23.89h8.62v4.16H81.7Z" transform="translate(0 -7.59)" fill="#36c2ff"/><path d="M106.48,7.59a11,11,0,0,1,8.29,3.46l-3.37,3.1a7.28,7.28,0,0,0-4.92-2,5.68,5.68,0,0,0-5.81,6,5.7,5.7,0,0,0,5.91,6c3.47,0,5.15-1.91,5.28-3.83h-5.64V16.1h10.89V18c0,5.85-3.43,10.73-10.63,10.73A10.38,10.38,0,0,1,95.76,18.15,10.38,10.38,0,0,1,106.48,7.59Z" transform="translate(0 -7.59)" fill="#36c2ff"/><path d="M131.13,7.59a10.35,10.35,0,0,1,10.66,10.56,10.66,10.66,0,0,1-21.32,0A10.33,10.33,0,0,1,131.13,7.59Zm0,16.53a5.65,5.65,0,0,0,5.75-6,5.65,5.65,0,0,0-5.75-6c-3.53,0-5.74,2.64-5.74,6A5.62,5.62,0,0,0,131.13,24.12Z" transform="translate(0 -7.59)" fill="#36c2ff"/><path d="M156.35,7.59A10.35,10.35,0,0,1,167,18.15a10.66,10.66,0,0,1-21.32,0A10.33,10.33,0,0,1,156.35,7.59Zm0,16.53a5.64,5.64,0,0,0,5.74-6,5.75,5.75,0,1,0-11.49,0A5.62,5.62,0,0,0,156.35,24.12Z" transform="translate(0 -7.59)" fill="#36c2ff"/><path d="M170.37,8.25h6.9c5.84,0,10.36,4.29,10.36,9.87,0,5.28-4,9.93-10.36,9.93h-6.9Zm6.8,15.38a5.28,5.28,0,0,0,5.48-5.51,5.23,5.23,0,0,0-5.48-5.48h-1.95v11Z" transform="translate(0 -7.59)" fill="#36c2ff"/><path d="M201.89,7.59a11,11,0,0,1,8.28,3.46l-3.37,3.1a7.28,7.28,0,0,0-4.91-2,5.67,5.67,0,0,0-5.81,6,5.69,5.69,0,0,0,5.9,6c3.47,0,5.15-1.91,5.29-3.83h-5.65V16.1h10.89V18c0,5.85-3.43,10.73-10.62,10.73a10.38,10.38,0,0,1-10.73-10.56A10.38,10.38,0,0,1,201.89,7.59Z" transform="translate(0 -7.59)" fill="#36c2ff"/><path d="M222.61,7.59h.86l9.7,20.46H228L227,26h-7.83l-.95,2.05H213Zm2.71,15-2.28-5H223l-2.31,5Z" transform="translate(0 -7.59)" fill="#36c2ff"/><path d="M235.28,8.25h4.52l5,10.69,5.08-10.69h4.46v19.8h-4.82V19.24l-4.32,9.47h-.79l-4.33-9.54v8.88h-4.85Z" transform="translate(0 -7.59)" fill="#36c2ff"/><path d="M257.55,8.25h13.11v4.29h-8.25V16.1H270v4.23h-7.62v3.56H271v4.16H257.55Z" transform="translate(0 -7.59)" fill="#36c2ff"/><path d="M278,22.24a2.07,2.07,0,0,0,2,2.08,1.74,1.74,0,0,0,2-1.72c0-1.48-1.95-1.91-3.57-2.47-3.33-1.19-5.18-2.74-5.18-6.14A6.59,6.59,0,0,1,280,7.59c4.39,0,6.47,2.8,6.74,6.47h-4.56a2.06,2.06,0,0,0-4.12-.14c0,1.49,1.81,1.75,3.5,2.25,3.53,1,5.18,3,5.18,6.14a6.56,6.56,0,0,1-6.7,6.4c-4.33,0-6.77-2.9-6.77-6.47Z" transform="translate(0 -7.59)" fill="#36c2ff"/><rect y="16.98" width="318" height="2"/><rect y="11.98" width="318" height="2"/></g></g></svg>