<?xml version="1.0" encoding="UTF-8"?><svg xmlns="http://www.w3.org/2000/svg" width="95.94" height="95.94" viewBox="0 0 95.94 95.94"><g id="a"/><g id="b"><g id="c"><g><path d="M62.59,42.1h-20.8c-.23,.01-.42,.18-.45,.4l-5.21,33.52c-.07,.47,.52,.72,.81,.35l26.01-33.53c.23-.3,.02-.74-.36-.74Z" fill="#fbb040"/><path d="M46.88,49.77h-11.15c-.9,0-1.57-.84-1.36-1.72l6.77-28.77c.15-.63,.71-1.08,1.36-1.08h20.29c1.07,0,1.74,1.14,1.22,2.08l-15.91,28.77c-.25,.45-.72,.72-1.22,.72Z" fill="#fbb040"/></g><circle cx="47.97" cy="47.97" r="44.8" fill="none" stroke="#fbb040" stroke-miterlimit="10" stroke-width="6.35"/></g></g></svg>