<?xml version="1.0" encoding="UTF-8"?><svg xmlns="http://www.w3.org/2000/svg" width="92.88" height="92.88" viewBox="0 0 92.88 92.88"><g id="a"/><g id="b"><g id="c"><g><path d="M60.59,40.76h-20.14c-.22,.01-.4,.17-.44,.39l-5.04,32.45c-.07,.45,.51,.7,.79,.34l25.18-32.46c.23-.29,.02-.71-.35-.71Z" fill="#fbb040"/><path d="M45.39,48.18h-10.8c-.87,0-1.52-.81-1.32-1.66l6.55-27.85c.14-.61,.69-1.04,1.32-1.04h19.65c1.03,0,1.68,1.11,1.19,2.01l-15.4,27.85c-.24,.43-.69,.7-1.19,.7Z" fill="#fbb040"/></g><circle cx="46.44" cy="46.44" r="43.37" fill="none" stroke="#fbb040" stroke-miterlimit="10" stroke-width="6.15"/></g></g></svg>